<?xml version="1.0" encoding="UTF-8"?>
<svg version="1.1" xmlns="http://www.w3.org/2000/svg" width="100" height="100">
<path d="M0 0 C0.72680466 0.00404846 1.45360931 0.00809692 2.20243835 0.01226807 C3.35144623 0.00701111 3.35144623 0.00701111 4.52366638 0.00164795 C7.06324753 -0.00717561 9.60255149 -0.00131752 12.14213562 0.00543213 C13.90329034 0.00408552 15.6644447 0.00214502 17.42559814 -0.00036621 C21.12029045 -0.00331843 24.81488617 0.00098278 28.50956726 0.01031494 C33.24889294 0.0217012 37.9879919 0.0151559 42.72730923 0.00317001 C46.36552644 -0.00405308 50.00368982 -0.00175844 53.64190865 0.0034256 C55.38944081 0.00476128 57.13697783 0.00311721 58.88450432 -0.00153351 C61.32655171 -0.0066052 63.76823092 0.0011208 66.21025085 0.01226807 C66.93503128 0.0082196 67.65981171 0.00417114 68.40655518 0 C72.08629909 0.03116211 73.62224766 0.17186099 76.77104187 2.27105713 C77.1519928 4.92779541 77.1519928 4.92779541 77.15922546 8.34136963 C77.16868195 9.61609131 77.17813843 10.89081299 77.18788147 12.2041626 C77.18251195 13.60146392 77.17635904 14.99876242 77.16947937 16.39605713 C77.17149944 17.82330474 77.17441031 19.25055134 77.17817688 20.67779541 C77.18260346 23.67057105 77.17615878 26.66307828 77.16215515 29.65582275 C77.14506267 33.49634159 77.15490212 37.33623155 77.17287254 41.17672729 C77.18370161 44.12437701 77.18026817 47.07187708 77.17248917 50.01953125 C77.17048471 51.43575108 77.17295505 52.8519844 77.17992783 54.26818848 C77.18752698 56.24570463 77.17389531 58.22326828 77.15922546 60.20074463 C77.15683868 61.32722412 77.1544519 62.45370361 77.1519928 63.61431885 C77.02627899 64.49104248 76.90056519 65.36776611 76.77104187 66.27105713 C73.14697524 68.68710155 70.50415599 68.55358735 66.31791687 68.52984619 C65.18332031 68.53510315 65.18332031 68.53510315 64.02580261 68.54046631 C61.52412249 68.54927281 59.02272489 68.54343835 56.52104187 68.53668213 C54.78373663 68.53802909 53.04643176 68.53996988 51.30912781 68.54248047 C47.66748975 68.54543026 44.02594978 68.54113874 40.38432312 68.53179932 C35.71340629 68.52040485 31.0427193 68.5269651 26.37181091 68.53894424 C22.78420781 68.54616675 19.19665931 68.54387312 15.60905457 68.53868866 C13.88664218 68.53735324 12.16422486 68.53899611 10.44181824 68.54364777 C8.0358006 68.54871941 5.63015664 68.54099393 3.22416687 68.52984619 C2.51030823 68.53389465 1.79644958 68.53794312 1.06095886 68.54211426 C-2.59716272 68.51066973 -4.09619428 68.35956636 -7.22895813 66.27105713 C-7.60317993 63.61431885 -7.60317993 63.61431885 -7.60127258 60.20074463 C-7.60750137 58.92602295 -7.61373016 57.65130127 -7.62014771 56.33795166 C-7.61145989 54.94064952 -7.60214194 53.54335118 -7.59223938 52.14605713 C-7.59172092 50.71881104 -7.59223807 49.29156423 -7.59375 47.86431885 C-7.59366022 44.87153478 -7.58321928 41.87901977 -7.56513977 38.8862915 C-7.54245214 35.04587507 -7.54190777 31.20585196 -7.54865742 27.36538696 C-7.55199543 24.41774995 -7.54537052 21.47020296 -7.53552818 18.52258301 C-7.53167298 17.10636872 -7.53052929 15.69014443 -7.53211403 14.27392578 C-7.53248397 12.29638428 -7.51840342 10.31885588 -7.50361633 8.34136963 C-7.49900894 7.21489014 -7.49440155 6.08841064 -7.48965454 4.92779541 C-6.99905441 -0.07187504 -4.43258514 0.0376972 0 0 Z " fill="#199AE1" transform="translate(15.228958129882813,15.72894287109375)"/>
<path d="M0 0 C0.72680466 0.00404846 1.45360931 0.00809692 2.20243835 0.01226807 C3.35144623 0.00701111 3.35144623 0.00701111 4.52366638 0.00164795 C7.06324753 -0.00717561 9.60255149 -0.00131752 12.14213562 0.00543213 C13.90329034 0.00408552 15.6644447 0.00214502 17.42559814 -0.00036621 C21.12029045 -0.00331843 24.81488617 0.00098278 28.50956726 0.01031494 C33.24889294 0.0217012 37.9879919 0.0151559 42.72730923 0.00317001 C46.36552644 -0.00405308 50.00368982 -0.00175844 53.64190865 0.0034256 C55.38944081 0.00476128 57.13697783 0.00311721 58.88450432 -0.00153351 C61.32655171 -0.0066052 63.76823092 0.0011208 66.21025085 0.01226807 C66.93503128 0.0082196 67.65981171 0.00417114 68.40655518 0 C72.08629909 0.03116211 73.62224766 0.17186099 76.77104187 2.27105713 C76.77104187 6.56105713 76.77104187 10.85105713 76.77104187 15.27105713 C49.05104187 15.27105713 21.33104187 15.27105713 -7.22895813 15.27105713 C-7.22895813 0.06147913 -7.22895813 0.06147913 0 0 Z " fill="#076ABB" transform="translate(15.228958129882813,15.72894287109375)"/>
<path d="M0 0 C1.65 0.33 3.3 0.66 5 1 C5.06058594 1.80824219 5.12117188 2.61648437 5.18359375 3.44921875 C5.30927734 5.05216797 5.30927734 5.05216797 5.4375 6.6875 C5.51871094 7.74324219 5.59992188 8.79898438 5.68359375 9.88671875 C5.94108202 12.96961574 5.94108202 12.96961574 6.59765625 15.83203125 C6.79681641 16.90517578 6.79681641 16.90517578 7 18 C6.67 18.33 6.34 18.66 6 19 C5.79649381 22.07068226 5.68052389 25.13932606 5.57421875 28.21484375 C5 31 5 31 2.95703125 32.37890625 C2.31121094 32.58386719 1.66539063 32.78882813 1 33 C0.38125 32.278125 -0.2375 31.55625 -0.875 30.8125 C-4.55613759 27.07801259 -9.2880233 25.15012529 -14 23 C-14.73512341 18.47354568 -15.05811603 14.48913583 -14 10 C-11.10851165 7.42544656 -8.33406231 5.97038777 -4.8203125 4.3671875 C-1.74902037 3.17250776 -1.74902037 3.17250776 0 0 Z " fill="#F6FAFD" transform="translate(60,40)"/>
<path d="M0 0 C17.82 0 35.64 0 54 0 C54 1.98 54 3.96 54 6 C36.18 6 18.36 6 0 6 C0 4.02 0 2.04 0 0 Z " fill="#60C3E1" transform="translate(33,21)"/>
<path d="M0 0 C2.97 0 5.94 0 9 0 C9 7.26 9 14.52 9 22 C7.68 22.33 6.36 22.66 5 23 C4.67 19.7 4.34 16.4 4 13 C3.195625 12.690625 2.39125 12.38125 1.5625 12.0625 C-1 11 -1 11 -2 10 C-2.27314815 4.26388889 -2.27314815 4.26388889 -2 2 C-1.34 1.34 -0.68 0.68 0 0 Z " fill="#EEF6FB" transform="translate(33,50)"/>
<path d="M0 0 C0.74958984 0.01353516 1.49917969 0.02707031 2.27148438 0.04101562 C4.11879767 0.07631461 5.96574066 0.13012083 7.8125 0.1875 C7.1525 0.8475 6.4925 1.5075 5.8125 2.1875 C5.34763282 5.30946336 5.34763282 5.30946336 5.1875 8.8125 C5.11273438 10.00101563 5.03796875 11.18953125 4.9609375 12.4140625 C4.91195312 13.32929687 4.86296875 14.24453125 4.8125 15.1875 C6.7925 15.8475 8.7725 16.5075 10.8125 17.1875 C10.4825 17.8475 10.1525 18.5075 9.8125 19.1875 C4.0625 17.3125 4.0625 17.3125 1.8125 16.1875 C1.8125 18.8275 1.8125 21.4675 1.8125 24.1875 C1.4825 24.1875 1.1525 24.1875 0.8125 24.1875 C0.8125 16.9275 0.8125 9.6675 0.8125 2.1875 C-4.67492709 2.17334708 -4.67492709 2.17334708 -9.1875 4.1875 C-9.55802339 9.36485677 -9.55802339 9.36485677 -8.1875 14.1875 C-9.1775 13.8575 -10.1675 13.5275 -11.1875 13.1875 C-11.26871924 11.58417209 -11.32679134 9.97965974 -11.375 8.375 C-11.40980469 7.48167969 -11.44460937 6.58835937 -11.48046875 5.66796875 C-11.1875 3.1875 -11.1875 3.1875 -10.1875 1.375 C-6.98096697 -0.52887898 -3.61158708 -0.12301476 0 0 Z " fill="#1E92D1" transform="translate(41.1875,47.8125)"/>
<path d="M0 0 C1.4540625 0.0309375 1.4540625 0.0309375 2.9375 0.0625 C5.40795803 3.87865468 5.37581912 7.90994248 5.5625 12.3125 C5.60117188 13.05757812 5.63984375 13.80265625 5.6796875 14.5703125 C5.77355108 16.4006524 5.85659718 18.23154143 5.9375 20.0625 C3.23983568 16.01600353 2.73492316 13.77075385 2.375 8.9375 C2.29121094 7.84179688 2.20742187 6.74609375 2.12109375 5.6171875 C2.06050781 4.77414063 1.99992187 3.93109375 1.9375 3.0625 C-2.15222 2.59725685 -2.15222 2.59725685 -4.5 5.4375 C-5.345625 6.30375 -6.19125 7.17 -7.0625 8.0625 C-9.875 9.375 -9.875 9.375 -12.0625 10.0625 C-12.0625 9.4025 -12.0625 8.7425 -12.0625 8.0625 C-11.11375 7.835625 -10.165 7.60875 -9.1875 7.375 C-5.87761807 6.37947917 -5.87761807 6.37947917 -4.75 3.5 C-4.523125 2.695625 -4.29625 1.89125 -4.0625 1.0625 C-3.0625 0.0625 -3.0625 0.0625 0 0 Z " fill="#1991D2" transform="translate(62.0625,37.9375)"/>
<path d="M0 0 C2.625 0.375 2.625 0.375 5 1 C5 2.32 5 3.64 5 5 C3.35 5.33 1.7 5.66 0 6 C-0.66 4.68 -1.32 3.36 -2 2 C-1.34 1.34 -0.68 0.68 0 0 Z " fill="#4FBEF1" transform="translate(14,21)"/>
<path d="M0 0 C1.65 0.33 3.3 0.66 5 1 C4.67 2.65 4.34 4.3 4 6 C2.35 5.67 0.7 5.34 -1 5 C-0.67 3.35 -0.34 1.7 0 0 Z " fill="#54C2F2" transform="translate(24,21)"/>
<path d="M0 0 C1.4540625 0.0309375 1.4540625 0.0309375 2.9375 0.0625 C0.9375 2.0625 0.9375 2.0625 -2.0625 3.0625 C-2.84625 3.866875 -3.63 4.67125 -4.4375 5.5 C-6.98677486 7.98857784 -8.71463121 9.01031267 -12.0625 10.0625 C-12.0625 9.4025 -12.0625 8.7425 -12.0625 8.0625 C-11.11375 7.835625 -10.165 7.60875 -9.1875 7.375 C-5.87761807 6.37947917 -5.87761807 6.37947917 -4.75 3.5 C-4.523125 2.695625 -4.29625 1.89125 -4.0625 1.0625 C-3.0625 0.0625 -3.0625 0.0625 0 0 Z " fill="#2696D3" transform="translate(62.0625,37.9375)"/>
<path d="M0 0 C1.47193312 2.94386623 0.84936173 5.37390036 0.5625 8.625 C0.40974609 10.40777344 0.40974609 10.40777344 0.25390625 12.2265625 C0.12822266 13.59941406 0.12822266 13.59941406 0 15 C-0.99 15.33 -1.98 15.66 -3 16 C-2.67 15.01 -2.34 14.02 -2 13 C-1.69513559 9.87513984 -1.49158784 6.74971889 -1.28125 3.6171875 C-1 1 -1 1 0 0 Z " fill="#2092D0" transform="translate(66,58)"/>
</svg>
