<?xml version="1.0" encoding="UTF-8"?>
<svg version="1.1" xmlns="http://www.w3.org/2000/svg" width="100" height="100">
<path d="M0 0 C6.6 0 13.2 0 20 0 C20 6.6 20 13.2 20 20 C17.69 18.35 15.38 16.7 13 15 C8.71 19.29 4.42 23.58 0 28 C-4.03744506 25.98127747 -6.62010675 23.91899872 -10 21 C-10.55461914 21.58080322 -11.10923828 22.16160645 -11.68066406 22.76000977 C-14.19073147 25.37374474 -16.71991027 27.96814819 -19.25 30.5625 C-20.12269531 31.47708984 -20.99539062 32.39167969 -21.89453125 33.33398438 C-22.73886719 34.19443359 -23.58320312 35.05488281 -24.453125 35.94140625 C-25.22817383 36.74263916 -26.00322266 37.54387207 -26.80175781 38.36938477 C-29 40 -29 40 -31.1640625 39.85546875 C-33.52768936 38.75411921 -34.96219428 37.32844835 -36.75 35.4375 C-37.67039062 34.47650391 -37.67039062 34.47650391 -38.609375 33.49609375 C-39.06828125 33.00238281 -39.5271875 32.50867187 -40 32 C-44.32504836 33.65863505 -47.09418825 36.871041 -50.25 40.125 C-50.80429687 40.68832031 -51.35859375 41.25164063 -51.9296875 41.83203125 C-53.29104485 43.21686028 -54.64614859 44.60783204 -56 46 C-58.31 44.02 -60.62 42.04 -63 40 C-58.47008204 34.56266945 -53.65705784 29.53541069 -48.625 24.5625 C-47.88894531 23.83095703 -47.15289062 23.09941406 -46.39453125 22.34570312 C-44.59863926 20.56147277 -42.80044015 18.77963876 -41 17 C-40.54109375 17.39832031 -40.0821875 17.79664062 -39.609375 18.20703125 C-38.68898438 19.00173828 -38.68898438 19.00173828 -37.75 19.8125 C-37.14671875 20.33457031 -36.5434375 20.85664062 -35.921875 21.39453125 C-33.99650362 23.00292076 -32.01948431 24.51219408 -30 26 C-29.16807129 25.12879517 -29.16807129 25.12879517 -28.31933594 24.23999023 C-25.80926853 21.62625526 -23.28008973 19.03185181 -20.75 16.4375 C-19.87730469 15.52291016 -19.00460938 14.60832031 -18.10546875 13.66601562 C-17.26113281 12.80556641 -16.41679688 11.94511719 -15.546875 11.05859375 C-14.38430176 9.85674438 -14.38430176 9.85674438 -13.19824219 8.63061523 C-11 7 -11 7 -8.88769531 7.08618164 C-6.01327277 8.47766684 -4.14474483 10.67652643 -2 13 C0.88437779 11.70700306 2.87219421 10.34058637 5 8 C3.57568513 4.93224489 2.09219926 2.78959901 0 0 Z " fill="#388E3C" transform="translate(72,16)"/>
<path d="M0 0 C2.97 0 5.94 0 9 0 C9 16.17 9 32.34 9 49 C6.03 49 3.06 49 0 49 C0 32.83 0 16.66 0 0 Z " fill="#4BAE4F" transform="translate(83,43)"/>
<path d="M0 0 C2.97 0 5.94 0 9 0 C9 14.85 9 29.7 9 45 C6.03 45 3.06 45 0 45 C0 30.15 0 15.3 0 0 Z " fill="#4BAE50" transform="translate(58,47)"/>
<path d="M0 0 C3.3 0 6.6 0 10 0 C10 11.22 10 22.44 10 34 C6.7 34 3.4 34 0 34 C0 22.78 0 11.56 0 0 Z " fill="#4CAF4F" transform="translate(70,58)"/>
<path d="M0 0 C3.3 0 6.6 0 10 0 C10 10.56 10 21.12 10 32 C6.7 32 3.4 32 0 32 C0 21.44 0 10.88 0 0 Z " fill="#4CAF4F" transform="translate(45,60)"/>
<path d="M0 0 C3.3 0 6.6 0 10 0 C10 9.9 10 19.8 10 30 C6.7 30 3.4 30 0 30 C0 20.1 0 10.2 0 0 Z " fill="#4CAF4F" transform="translate(20,62)"/>
<path d="M0 0 C2.97 0 5.94 0 9 0 C9 8.58 9 17.16 9 26 C6.03 26 3.06 26 0 26 C0 17.42 0 8.84 0 0 Z " fill="#4BAE50" transform="translate(33,66)"/>
<path d="M0 0 C2.97 0 5.94 0 9 0 C9 7.26 9 14.52 9 22 C6.03 22 3.06 22 0 22 C0 14.74 0 7.48 0 0 Z " fill="#4BAE4F" transform="translate(8,70)"/>
</svg>
